<?xml version="1.0" standalone="no"?>
<!DOCTYPE svg PUBLIC "-//W3C//DTD SVG 20010904//EN"
 "http://www.w3.org/TR/2001/REC-SVG-20010904/DTD/svg10.dtd">
<svg version="1.0" xmlns="http://www.w3.org/2000/svg"
 width="640pt" height="350pt" viewBox="0 0 1640.000000 788.000000"
 preserveAspectRatio="xMidYMid meet">

<g transform="translate(0.000000,788.000000) scale(0.100000,-0.100000)"
fill="white" stroke="none">
<path d="M5770 7874 c-259 -17 -457 -38 -468 -49 -2 -2 13 -47 33 -102 21 -54
95 -266 166 -471 168 -488 382 -1144 850 -2617 268 -841 407 -1255 422 -1255
19 0 313 71 394 96 149 44 219 124 210 239 -2 33 -15 87 -28 120 l-24 59 -90
1 c-49 0 -96 4 -102 8 -8 5 -13 30 -13 60 -1 67 -24 117 -109 236 -74 103 -95
144 -106 210 -4 22 -10 41 -13 41 -4 -1 -34 -7 -67 -15 -33 -8 -67 -15 -76
-15 -22 0 -136 242 -193 410 -74 222 -90 314 -90 530 -1 204 12 290 65 453
181 554 729 951 1433 1038 139 17 411 6 541 -21 254 -54 470 -159 638 -311 81
-73 185 -210 241 -318 26 -50 50 -91 55 -91 4 0 183 14 397 30 214 17 399 28
412 25 54 -13 45 -115 -21 -239 -38 -72 -167 -206 -254 -264 -69 -47 -213
-120 -288 -147 -27 -10 -53 -21 -57 -24 -4 -3 2 -37 13 -76 26 -94 24 -141 -6
-201 -20 -38 -25 -58 -20 -88 11 -74 65 -156 172 -262 56 -56 105 -114 109
-128 13 -55 -17 -95 -131 -173 -38 -27 -75 -59 -82 -73 -19 -37 -16 -101 7
-138 23 -38 90 -75 98 -54 11 34 126 174 193 235 185 171 424 288 644 318 349
46 682 -163 792 -496 23 -69 26 -97 26 -205 0 -108 -3 -136 -26 -205 -67 -203
-216 -360 -417 -442 -106 -43 -192 -56 -325 -50 -152 7 -272 39 -421 112 -185
90 -353 234 -440 376 -19 33 -39 59 -43 59 -5 0 -26 -13 -48 -29 -54 -39 -89
-114 -103 -216 -19 -147 -84 -240 -205 -297 -49 -23 -54 -23 -352 -20 -315 3
-384 -2 -458 -38 -44 -21 -65 -53 -65 -99 0 -51 31 -66 265 -130 421 -115 618
-183 841 -291 422 -203 646 -452 799 -891 34 -98 106 -375 120 -465 l6 -42
157 -7 c189 -10 500 6 696 35 248 37 475 104 653 193 156 79 245 170 295 302
l23 60 3 2735 c3 3033 7 2807 -63 2868 -64 57 -146 53 -255 -12 -321 -194
-891 -371 -1400 -436 -752 -96 -1472 -20 -2285 240 -697 223 -1266 345 -1855
395 -176 15 -653 27 -770 19z"/>
<path d="M4178 7531 c-98 -39 -154 -92 -172 -166 -4 -16 -7 -1188 -6 -2604 1
-2519 1 -2574 20 -2610 48 -89 97 -95 350 -42 107 22 285 57 395 77 110 20
201 37 202 38 2 2 12 38 23 81 104 405 506 709 1210 915 80 24 148 46 153 50
4 3 -220 465 -499 1026 -279 560 -586 1181 -684 1379 -98 198 -310 628 -472
955 -162 327 -330 668 -373 758 -43 89 -83 162 -89 162 -6 -1 -32 -9 -58 -19z"/>
</g>
</svg>
